<svg xmlns="http://www.w3.org/2000/svg" width="156.274" height="156.288" viewBox="0 0 156.274 156.288"><g transform="translate(-0.021)"><path d="M147.1,188.379h-1.888a20.519,20.519,0,0,0-20.474,19.574h42.837A20.522,20.522,0,0,0,147.1,188.379Z" transform="translate(-86.425 -130.537)" fill="#baa8d4"/><path d="M131.59,0H24.727C11.1,0,.021,11.986.021,26.719V94.2c0,14.733,11.083,26.719,24.706,26.719H56.811L74.08,153.822a4.606,4.606,0,0,0,8.157,0l17.269-32.907H131.59c13.623,0,24.706-11.986,24.706-26.719V26.719C156.3,11.986,145.213,0,131.59,0ZM82.1,86.628H37.375a8.3,8.3,0,0,1-8.29-8.29A29.752,29.752,0,0,1,47.338,50.928a17.523,17.523,0,1,1,24.794,0A29.752,29.752,0,0,1,90.386,78.337,8.3,8.3,0,0,1,82.1,86.628Zm39.854-7.607c0,1.951-2.377,2.926-4.755,2.926s-4.755-.976-4.755-2.926V47.992l-1.768,1.1a2.77,2.77,0,0,1-1.524.488c-1.768,0-2.987-1.89-2.987-3.779a3.64,3.64,0,0,1,1.768-3.231l8.047-4.877a3.308,3.308,0,0,1,1.768-.427c1.951,0,4.206,1.158,4.206,2.987Z" fill="#baa8d4"/><path d="M175.741,115.121a8.312,8.312,0,1,0-8.312-8.312A8.321,8.321,0,0,0,175.741,115.121Z" transform="translate(-116.005 -68.253)" fill="#baa8d4"/></g></svg>