<svg xmlns="http://www.w3.org/2000/svg" width="162" height="151.68" viewBox="0 0 162 151.68"><g transform="translate(0 -16.308)"><g transform="translate(10.125 97.113)"><path d="M32,271.692v60.75a10.135,10.135,0,0,0,10.125,10.125H92.75V271.692Z" transform="translate(-32 -271.692)" fill="#baa9d5"/></g><g transform="translate(0 16.308)"><path d="M151.875,56.613H119.84a39.339,39.339,0,0,0,5.65-4.526,21.163,21.163,0,0,0,0-29.788c-7.938-8-21.769-7.979-29.7,0C91.4,26.7,79.755,44.635,81.365,56.613h-.729C82.235,44.635,70.592,26.7,66.207,22.3c-7.938-7.979-21.769-7.979-29.7,0a21.191,21.191,0,0,0-.01,29.788,40.067,40.067,0,0,0,5.66,4.526H10.125A10.142,10.142,0,0,0,0,66.738V81.926a5.064,5.064,0,0,0,5.063,5.063H70.875V66.738h20.25v20.25h65.813A5.064,5.064,0,0,0,162,81.926V66.738A10.135,10.135,0,0,0,151.875,56.613Zm-81.6-.334a3.339,3.339,0,0,1-1.873.334c-7,0-20.351-7.27-24.715-11.664a11.043,11.043,0,0,1,0-15.512,10.792,10.792,0,0,1,15.339,0C65.853,36.3,72.637,53.839,70.278,56.279Zm23.308.334c-1.438,0-1.863-.324-1.863-.334-2.359-2.44,4.425-19.977,11.249-26.841a10.908,10.908,0,1,1,15.339,15.512C113.947,49.343,100.592,56.613,93.585,56.613Z" transform="translate(0 -16.308)" fill="#baa9d5"/></g><g transform="translate(91.125 97.113)"><path d="M288,271.692v70.875h50.625a10.129,10.129,0,0,0,10.125-10.125v-60.75Z" transform="translate(-288 -271.692)" fill="#baa9d5"/></g></g></svg>