<svg xmlns="http://www.w3.org/2000/svg" width="144" height="150.073" viewBox="0 0 144 150.073"><g transform="translate(-10.359 0.002)"><g transform="translate(10.359 -0.002)"><g transform="translate(0)"><path d="M147.416,76.979a4.4,4.4,0,0,1,0-3.887l5.6-11.45a13.028,13.028,0,0,0-5.621-17.3l-11.258-5.974a4.4,4.4,0,0,1-2.285-3.145l-2.2-12.554a13.028,13.028,0,0,0-14.716-10.692l-12.619,1.785a4.4,4.4,0,0,1-3.7-1.2L91.454,3.7a13.027,13.027,0,0,0-18.191,0L64.1,12.561a4.4,4.4,0,0,1-3.7,1.2L47.787,11.977A13.027,13.027,0,0,0,33.071,22.67l-2.2,12.553a4.4,4.4,0,0,1-2.285,3.145L17.326,44.341a13.028,13.028,0,0,0-5.621,17.3l5.6,11.45a4.4,4.4,0,0,1,0,3.887l-5.6,11.45a13.028,13.028,0,0,0,5.621,17.3L28.584,111.7a4.4,4.4,0,0,1,2.285,3.145l2.2,12.554a13.02,13.02,0,0,0,12.843,10.824,13.386,13.386,0,0,0,1.874-.132l12.619-1.785a4.4,4.4,0,0,1,3.7,1.2l9.16,8.861a13.027,13.027,0,0,0,18.19,0l9.16-8.861a4.4,4.4,0,0,1,3.7-1.2l12.619,1.785A13.026,13.026,0,0,0,131.647,127.4l2.2-12.553a4.4,4.4,0,0,1,2.285-3.145l11.258-5.974a13.028,13.028,0,0,0,5.621-17.3ZM65.048,36.085A15.869,15.869,0,1,1,49.179,51.954,15.887,15.887,0,0,1,65.048,36.085Zm-8.191,70.572a4.328,4.328,0,1,1-6.12-6.12l57.124-57.124a4.328,4.328,0,0,1,6.12,6.12Zm42.813,7.328a15.869,15.869,0,1,1,15.869-15.869A15.887,15.887,0,0,1,99.67,113.985Z" transform="translate(-10.359 0.002)" fill="#baa9d5"/></g></g><g transform="translate(92.457 90.904)"><path d="M297.665,310.141a7.213,7.213,0,1,0,7.213,7.213A7.221,7.221,0,0,0,297.665,310.141Z" transform="translate(-290.452 -310.141)" fill="#baa9d5"/></g><g transform="translate(57.835 44.74)"><path d="M179.546,152.646a7.213,7.213,0,1,0,7.213,7.213A7.221,7.221,0,0,0,179.546,152.646Z" transform="translate(-172.333 -152.646)" fill="#baa9d5"/></g></g></svg>